<svg height="512" viewBox="0 0 50 59" width="512" xmlns="http://www.w3.org/2000/svg"><g id="Page-1" fill="none" fill-rule="evenodd"><g id="081---Download-File" fill-rule="nonzero"><path id="Shape" d="m35 1h-27c-1.10320187.0032948-1.9967052.89679813-2 2v40c.0032948 1.1032019.89679813 1.9967052 2 2h34c1.1032019-.0032948 1.9967052-.8967981 2-2v-33z" fill="#f0c419"/><path id="Shape" d="m35 1v7c0 1.1045695.8954305 2 2 2h7z" fill="#f3d55b"/><rect id="Rectangle-path" fill="#df4d60" height="4" rx="1" width="12" x="19" y="24"/><rect id="Rectangle-path" fill="#ff5364" height="4" rx="1" width="12" x="19" y="32"/><path id="Shape" d="m34.671 50.74-9 8c-.3815185.3471434-.9644815.3471434-1.346 0l-9-8c-.3060601-.2781843-.4092867-.716078-.2597023-1.1016733s.5211104-.6393178.9347023-.6383267h2c.5522847 0 1-.4477153 1-1v-7c0-.5522847.4477153-1 1-1h10c.5522847 0 1 .4477153 1 1v7c0 .5522847.4477153 1 1 1h2c.4128611.0006628.7828721.2549821.9314219.6401933.1485499.3852113.0450963.8221137-.2604219 1.0998067z" fill="#ff5364"/><g fill="#2fa8cc"><path id="Shape" d="m1 6c-.55228475 0-1-.44771525-1-1v-4c0-.55228475.44771525-1 1-1s1 .44771525 1 1v4c0 .55228475-.44771525 1-1 1z"/><path id="Shape" d="m1 33c-.55228475 0-1-.4477153-1-1v-22c0-.55228475.44771525-1 1-1s1 .44771525 1 1v22c0 .5522847-.44771525 1-1 1z"/><path id="Shape" d="m49 6c-.5522847 0-1-.44771525-1-1v-4c0-.55228475.4477153-1 1-1s1 .44771525 1 1v4c0 .55228475-.4477153 1-1 1z"/><path id="Shape" d="m49 33c-.5522847 0-1-.4477153-1-1v-22c0-.55228475.4477153-1 1-1s1 .44771525 1 1v22c0 .5522847-.4477153 1-1 1z"/></g><path id="Shape" d="m10 9c-.55228475 0-1-.44771525-1-1v-2c0-.55228475.44771525-1 1-1 .5522847 0 1 .44771525 1 1v2c0 .55228475-.4477153 1-1 1z" fill="#f9eab0"/><path id="Shape" d="m10 30c-.55228475 0-1-.4477153-1-1v-17c0-.5522847.44771525-1 1-1 .5522847 0 1 .4477153 1 1v17c0 .5522847-.4477153 1-1 1z" fill="#f9eab0"/></g></g></svg>